<?xml version="1.0" standalone="no"?>
<!DOCTYPE svg PUBLIC "-//W3C//DTD SVG 1.1//EN" "http://www.w3.org/Graphics/SVG/1.1/DTD/svg11.dtd" >
<svg xmlns="http://www.w3.org/2000/svg">
<metadata></metadata>
<defs>
<font id="barrocoregular" horiz-adv-x="2048" >
<font-face units-per-em="2048" ascent="1638" descent="-410" />
<missing-glyph horiz-adv-x="614" />
<glyph horiz-adv-x="0" />
<glyph horiz-adv-x="682" />
<glyph unicode=" "  horiz-adv-x="614" />
<glyph unicode="&#x09;" horiz-adv-x="614" />
<glyph unicode="&#xa0;" horiz-adv-x="614" />
<glyph unicode="!" horiz-adv-x="1585" d="M657 39l23 321l559 -34l-41 -420zM702 592l117 1288l606 25l-170 -1325q-76 0 -167 4t-171.5 8t-141 5t-73.5 -5z" />
<glyph unicode="$" horiz-adv-x="1312" d="M10 109l156 436q31 -12 74 -31q43 -18 92 -37q49 -16 100 -28q55 -10 105 -11q76 6 127 27q55 23 51 76q-2 37 -35 53q-33 18 -82 37q-31 8 -80 22t-106 39q-55 25 -117 60q-57 35 -107 84q-49 49 -79 114q-31 68 -33 148q-6 115 30 213q37 98 101 172q63 74 151 125 q92 53 195 78v200l391 15l-51 -191q94 -6 180 -24q90 -18 166 -52l-121 -473q-82 35 -149 58q-68 25 -158 36q-25 6 -70 5q-43 0 -86 -9q-43 -6 -73 -28q-29 -18 -33 -58q0 -14 14 -24q18 -10 37 -17q23 -4 45 -8q25 -2 37 -6q59 -12 92 -20q37 -8 35 -9q57 -12 111 -34 q63 -27 129 -64t120 -90q55 -53 93 -129q37 -74 41 -178q6 -115 -31 -213q-33 -94 -101 -168q-66 -72 -161 -123q-94 -49 -209 -78v-205l-391 -14l53 192q-119 10 -238 48q-117 37 -215 84z" />
<glyph unicode="%" horiz-adv-x="1531" d="M473 1329q0 -86 37 -172q37 -78 92 -108q59 -29 121 -29q61 4 117 31q59 30 90 73q47 63 65 129q23 66 23 131q4 68 -10 123q-14 57 -39 105q-12 23 -37 47q-23 25 -58 39q-33 16 -73 16q-41 4 -86 -14q-70 -25 -125 -82q-55 -55 -86 -129q-29 -74 -31 -160zM522 57 l789 1661l188 -49l-821 -1679zM659 1313q-4 61 15 104q18 45 43 66q27 25 53 18q31 -6 45 -43q14 -29 14 -72q4 -43 -22 -106q-10 -31 -35 -51t-49 -21q-20 0 -41 25q-18 25 -23 80zM958 299q-2 -86 39 -172q37 -78 93 -109q59 -31 120 -28q61 2 117 30q59 31 90 74 q47 61 66 127q20 66 20 131q6 68 -10 123q-12 57 -39 105q-12 23 -37 47q-25 25 -57 39q-31 18 -72 18q-41 4 -86 -14q-68 -27 -125 -82q-55 -55 -88 -129q-29 -74 -31 -160zM1147 283q-4 61 14 104t43 64q27 25 53 18q32 -4 46 -41q10 -29 12 -72q6 -41 -21 -108 q-10 -31 -34 -51q-25 -20 -50 -21q-20 0 -41 25q-18 25 -22 82z" />
<glyph unicode="&#x26;" horiz-adv-x="1730" d="M-25 422q-6 92 19 166q25 76 74 133q49 61 116 100q68 43 148 64q-72 61 -121 131q-45 74 -55 170q-8 121 37 211q47 90 126 149q80 61 185 94q104 37 209 43q98 10 205 -6q109 -14 198 -59q92 -43 154 -123q66 -78 73 -192q6 -70 -12 -142q-16 -72 -55 -133 q-37 -61 -92 -108q-55 -49 -121 -74l160 -139q74 55 125 124q55 74 106 144l338 -326l-240 -215l177 -137l-437 -307l-137 182q-115 -90 -235 -135q-119 -43 -269 -55q-121 -10 -237 4q-117 18 -211 65q-94 51 -156 142q-61 90 -72 229zM510 504q4 -61 49 -90 q49 -25 107 -21q49 4 79 19q37 18 74 37l-223 188q-31 -25 -61 -55q-29 -29 -25 -78zM684 1217q2 -33 31 -70t59 -51q18 10 37 26q18 16 33 35q18 20 24 41q10 25 6 45q0 35 -30 64q-29 31 -66 24q-43 -4 -71 -37q-25 -32 -23 -77z" />
<glyph unicode="'" horiz-adv-x="522" d="M111 1604l172 413l157 -129l-243 -313z" />
<glyph unicode="(" horiz-adv-x="827" d="M170 821q4 88 43 242q41 154 135 358q98 209 279 445l102 -86q-145 -225 -221 -418q-74 -190 -107 -332q-29 -137 -32 -217q0 -80 -2 -80q2 2 10 -74q12 -74 47 -194q41 -117 115 -262q78 -143 206 -285l-100 -72q-129 115 -221 240q-88 127 -139 238q-49 115 -78 206 q-27 98 -33 148q-6 51 -4 143z" />
<glyph unicode=")" horiz-adv-x="790" d="M80 1794l100 72q133 -113 221 -240q90 -125 140 -237q53 -111 77 -207q29 -94 33 -148q6 -49 6 -55q2 0 -2 -88q-2 -86 -43 -240q-39 -152 -135 -360q-94 -205 -278 -445l-103 86q147 227 221 418q76 193 107 332t35 297l-10 74q-6 78 -48 194q-37 119 -114 262 q-74 145 -207 285z" />
<glyph unicode="+" horiz-adv-x="1581" d="M104 543l39 387l400 14l4 492l454 65l-30 -543l489 19l-39 -426l-475 -4l-22 -389l-387 -39l4 426z" />
<glyph unicode="," horiz-adv-x="485" d="M59 -178l109 434l283 -143l-205 -351z" />
<glyph unicode="-" horiz-adv-x="933" d="M135 590l19 235l649 29l-21 -274z" />
<glyph unicode="." horiz-adv-x="448" d="M55 51l23 322l315 -70l-47 -299z" />
<glyph unicode="/" horiz-adv-x="1056" d="M47 57l789 1661l186 -49l-821 -1679z" />
<glyph unicode="0" horiz-adv-x="1384" d="M16 858q18 137 70 260q53 127 131 228q80 104 180 180q104 80 219 121q111 45 211 36q104 -8 185 -45q82 -35 143 -94q61 -57 92 -121q59 -113 94 -260q37 -147 33 -307t-55 -326q-49 -165 -164 -321q-55 -74 -137 -133q-80 -55 -178 -92q-98 -33 -203 -39 q-102 -4 -203 28q-98 35 -184 111q-84 80 -146 207q-66 143 -86 287q-20 147 -2 280zM477 680q8 -139 55 -201q49 -61 107 -61q61 0 119 49q59 49 90 127t43 145q14 68 12 123q0 55 -12 101q-9 44 -25 79q-37 90 -106 101q-68 14 -135 -39q-63 -51 -111 -162 q-45 -111 -37 -262z" />
<glyph unicode="1" horiz-adv-x="1060" d="M-6 1257l403 383l566 58l-78 -1725l-502 66l-6 1114l-182 -154z" />
<glyph unicode="2" horiz-adv-x="1380" d="M-20 1339q190 180 356 271q164 92 299 116q135 27 244 3q109 -20 188 -72q80 -47 135 -103q55 -53 80 -92q25 -37 27 -41q84 -147 59 -278q-25 -129 -117 -244q-92 -111 -227 -209t-272 -184l555 63l-13 -518l-1214 -61l-2 313q-12 53 14 113q31 59 84 127q55 68 129 135 q74 70 152 137q78 68 149 129q74 63 127 115q53 55 78 94q29 43 10 64q-25 33 -94 14q-68 -16 -154 -64q-84 -45 -172 -108q-86 -59 -147 -115z" />
<glyph unicode="3" horiz-adv-x="1306" d="M-10 244l301 430q147 -104 239 -139t144 -33q51 6 88 43q0 4 8 22q8 25 4 56q-4 33 -33 61q-31 29 -104 43q-74 18 -205 4l23 350q139 -12 196 6q61 18 72 50q14 31 2 55q-12 29 -12 27q2 2 -21 20q-20 18 -74 25q-51 8 -141 -19q-88 -25 -223 -119l-201 373 q201 139 373 189q172 51 301 41q129 -8 221 -50q94 -41 137 -75q45 -35 50 -41q4 0 30 -37q29 -35 58 -103q31 -66 32 -145q6 -78 -45 -170q-51 -88 -182 -174q135 -78 197 -178q61 -96 73 -195q12 -94 -4 -180q-16 -82 -37 -129q-18 -45 -22 -51q2 2 -27 -39 q-29 -39 -88 -88q-59 -47 -157 -86q-96 -39 -236 -35q-137 6 -321 70q-184 68 -416 221z" />
<glyph unicode="4" horiz-adv-x="1234" d="M-10 1030l686 684l502 -155l-766 -721h209l6 118h471l-21 -120l183 32l-29 -475l-182 -2l-23 -375l-522 -22l37 393l-508 -39z" />
<glyph unicode="5" horiz-adv-x="1169" d="M6 479q158 -33 268 -26q111 10 175 43q66 37 100 77q37 41 47 72t10 33q8 39 -14 61q-23 23 -68 35q-41 12 -102 12q-57 4 -121 -4q-61 -6 -123 -24q-59 -16 -108 -37l69 883l973 47l10 -408l-622 6l-51 -145q111 31 233 20q123 -10 227 -59q106 -49 176 -135 q74 -86 80 -254q2 -41 -14 -113t-53 -153q-37 -80 -109 -162q-72 -80 -188 -144q-117 -61 -291 -92q-172 -31 -412 -12z" />
<glyph unicode="6" horiz-adv-x="1148" d="M-35 594q6 141 72 313q70 174 223 385q156 215 426 457l313 -303q-78 -61 -147 -129q-66 -68 -119 -123q-49 -55 -108 -125q68 37 127 35q66 4 114 -14q51 -16 92 -46q43 -25 62 -45q20 -18 22 -22q125 -135 142 -277q16 -139 -41 -268q-55 -129 -170 -231 q-111 -102 -246 -164q-133 -57 -272 -62q-135 -4 -242 68q0 4 -39 35q-35 33 -88 102q-49 70 -86 172t-35 242zM416 479q25 -57 90 -71q67 -11 135 26q68 41 96 109q31 68 6 127q-23 59 -90 71q-68 12 -135 -26q-68 -41 -96 -109q-31 -66 -6 -127z" />
<glyph unicode="7" horiz-adv-x="1103" d="M-16 1626l1163 64l-182 -627l133 4l-66 -373l-145 -6l-168 -696l-563 65l192 615l-164 -6l23 364l256 14l80 195l-531 -63z" />
<glyph unicode="8" horiz-adv-x="1236" d="M-12 385q-10 92 12 174q25 84 76 158q55 78 129 137q-41 41 -70 90q-68 127 -55 246q14 123 84 221q74 100 190 174q121 74 264 105q92 18 173 12q78 -6 143 -31q66 -25 110 -59q49 -35 70 -72q37 -57 57 -131q25 -70 21 -149q-4 -80 -35 -162q-31 -80 -100 -160 q48 -33 73 -76q45 -74 68 -166q25 -90 12 -192q-12 -98 -67 -201q-55 -102 -166 -194q-51 -43 -129 -78q-78 -31 -166 -49q-86 -18 -180 -17q-92 2 -180 27q-84 29 -158 78q-70 53 -117 133q-47 92 -59 182zM426 436q0 -72 31 -108q33 -33 75 -37q45 0 91 22q44 25 71 66 q55 84 54 139q0 59 -19 96q-23 49 -74 58q-49 12 -100 -15q-49 -27 -90 -84q-39 -57 -39 -137zM496 1157q0 -55 24 -82q25 -23 58 -26q33 0 65 16q37 18 55 49q39 61 39 105t-12 73q-16 37 -55 43q-35 8 -76 -12q-37 -18 -68 -61t-30 -105z" />
<glyph unicode="9" horiz-adv-x="1163" d="M-29 1116q16 104 72 195q57 94 137 170q82 76 180 129q102 55 203 80q104 27 201 14q98 -12 176 -68q2 -2 39 -34q41 -33 88 -103q51 -68 86 -172q39 -102 35 -242q0 -139 -70 -313q-68 -170 -223 -385q-154 -211 -426 -457l-315 306q80 63 149 129q70 66 119 120 q53 55 80 90q31 35 28 35q-63 -33 -127 -35q-61 -2 -114 15q-49 20 -92 45q-41 29 -62 45q-18 20 -22 22q-92 102 -125 207q-33 106 -17 207zM412 1010q25 -55 90 -70q68 -14 133 27q68 41 98 106q31 70 6 127q-25 61 -92 72q-65 14 -133 -27t-98 -108q-31 -68 -4 -127z" />
<glyph unicode=":" horiz-adv-x="364" d="M14 63l21 306l289 -62l-33 -284zM16 762l70 268l264 -86l-59 -260z" />
<glyph unicode=";" horiz-adv-x="428" d="M-25 -178l115 385l252 -90l-203 -320zM63 377l70 268l264 -86l-59 -260z" />
<glyph unicode="=" horiz-adv-x="1419" d="M6 49l39 387l1317 47l-39 -426zM55 678l37 387l1317 47l-39 -424z" />
<glyph unicode="?" horiz-adv-x="1484" d="M2 1505q207 197 383 299q178 104 320 133q143 33 258 15q117 -16 196 -64q82 -45 137 -100q55 -51 80 -90q29 -37 29 -41q74 -125 63 -240q-6 -111 -71 -213q-61 -98 -166 -188q-102 -86 -219 -168q-115 -78 -232 -150q-117 -68 -207 -135q-45 -33 -91 -75t-85 -50 q-25 -6 -80 15.5t-110 50t-141 80.5q-18 53 12 110q33 61 94 123q61 63 145 127q84 68 172 129q92 66 175 121q86 59 145 109q63 49 94 88q31 41 15 61q-16 25 -54 21q-35 -2 -86 -21q-49 -18 -108 -49q-59 -29 -117 -68q-55 -37 -111 -80q-53 -39 -92 -75zM242 307l376 58 l109 -412l-463 -92z" />
<glyph unicode="@" horiz-adv-x="1601" d="M6 834q-2 184 64 337q68 156 178 271q113 115 264 178q154 68 326 66q143 0 272 -46q131 -43 238 -143q111 -96 176 -221q68 -125 67 -279q2 -135 -35 -252q-33 -117 -100 -202q-76 -104 -166 -148q-90 -43 -168 -41q-45 4 -84 37q-39 37 -51 86q-41 -43 -110 -84 q-70 -37 -168 -39q-70 0 -138 31q-68 33 -118 86q-49 53 -80 125q-31 76 -31 156q0 98 31 190q33 94 90 166q57 74 139 117t184 43q86 2 150 -23q68 -25 115 -94l16 70h215l-108 -531q-2 -16 -9 -43q-6 -25 -6 -49q0 -18 8 -35q8 -12 33 -12q29 4 62 35q35 33 63 84 q31 55 51 118q20 68 25 136q8 135 -35 237q-39 104 -119 170q-76 70 -184 103q-106 37 -234 34q-133 2 -247 -45q-111 -45 -193 -131q-80 -84 -123 -200q-43 -117 -43 -258q-2 -145 47 -265q49 -117 136 -198q86 -80 202 -125q119 -43 258 -43t238 18q100 20 153 51 l-32 -204q-57 -31 -90 -48q-29 -16 -66 -22q-33 -6 -82 -10q-49 0 -137 -2q-176 2 -330 63q-152 63 -268 176q-113 115 -180 269q-66 156 -66 340zM596 782q-2 -37 10 -73q12 -35 33 -64q20 -27 51 -45q31 -16 72 -16q49 0 86 20q37 25 61 58q25 35 37 75q16 41 19 82 q14 94 -31 152q-45 57 -125 57q-45 2 -86 -20q-37 -20 -68 -58q-27 -37 -43 -80t-16 -88z" />
<glyph unicode="A" horiz-adv-x="1740" d="M-102 137l911 1651l1034 -1573l-643 -244l-172 287l-430 -14l-84 -307zM705 569l243 43l-102 279z" />
<glyph unicode="B" horiz-adv-x="1411" d="M66 1599q287 55 475 74q181 19 287 19h10q109 0 194 -21l41 -18q43 -18 96 -58q53 -35 101 -96q49 -57 59 -135q3 -19 3 -39q0 -62 -32 -135q-43 -96 -167 -213q170 -88 243 -193q74 -104 80 -204q2 -20 2 -41q0 -78 -31 -152q-35 -92 -88 -162q-49 -68 -135 -153 q0 2 -26 -17q-23 -14 -101 -37q-74 -20 -200 -36q-123 -14 -324 -15q-197 4 -473 33zM582 635l26 -215q35 -2 65 -2q67 0 109 12q63 20 90 49q29 33 33 58q6 28 6 26q1 1 1 4q0 6 -3 19q-2 20 -18 47q-14 31 -51 45q-23 12 -61 12q-17 0 -36 -2q-63 -4 -161 -53zM602 997 q20 -3 38 -4q38 0 65 15q41 23 61 51q25 31 29 55q8 29 8 27t0 22q1 5 1 10q0 19 -13 35q-16 25 -58 29q-8 2 -18 2q-39 0 -105 -27z" />
<glyph unicode="C" horiz-adv-x="1531" d="M-35 631q-3 39 -3 78q0 113 26 225q39 154 106 285q70 135 162 239q94 106 190 170q0 2 41 23q43 25 113 43q72 23 168 30q29 4 60 4q72 0 151 -20q117 -29 238 -104q124 -77 247 -224l-358 -440q-109 117 -193 150q-54 22 -99 22q-23 0 -44 -6q-59 -16 -102 -72 q-41 -55 -66 -110q-23 -55 -35 -103q-8 -43 -10 -45q0 -4 8 -53q10 -47 43 -109q37 -61 97 -90q28 -13 64 -13q46 0 105 21q111 37 267 183l399 -426q-31 -59 -106 -121q-76 -61 -181 -113q-104 -47 -229 -84q-123 -33 -254 -39q-20 -1 -40 -1q-109 0 -216 28 q-127 33 -233 115q-154 119 -228 262q-72 143 -88 295z" />
<glyph unicode="D" horiz-adv-x="1474" d="M86 1602q371 74 725 114q71 12 136 12q91 0 169 -24q133 -41 225 -129q92 -86 142 -215q49 -127 55 -273q1 -24 1 -49q0 -120 -32 -250q-37 -154 -123 -299q-84 -141 -217 -268q-131 -123 -313 -209q2 0 -35 -10t-121 -20q-86 -8 -227 -9q-139 4 -352 29zM614 467 q115 27 189 80q74 55 110 112q37 61 52 117q16 53 16 113v14q0 4 -6 39q-6 37 -27 86q-18 49 -57 80q-30 28 -81 28q-9 0 -19 -1q-61 -6 -156 -80z" />
<glyph unicode="E" horiz-adv-x="1212" d="M72 1585l1130 84l-63 -518l-514 -23l-2 -98l372 27l-43 -359l-342 -26l-4 -113l586 55l-10 -565l-1096 -59z" />
<glyph unicode="F" horiz-adv-x="1118" d="M76 1587l1132 82l-63 -532l-516 -21l-23 -160l430 27l29 -430l-432 -27l-21 -524l-522 -12z" />
<glyph unicode="G" horiz-adv-x="1669" d="M-14 627q-2 31 -2 61q0 121 26 234q35 143 111 270q80 127 184 227q111 104 242 174q133 74 280 103q4 0 43 4q25 5 59 5q26 0 58 -3q78 -2 170 -29q94 -25 205 -86q113 -61 219 -168l-383 -403q-27 70 -90 100q-61 33 -141 33q-74 0 -158 -33q-80 -31 -150 -92 q-66 -57 -110 -145q-45 -84 -45 -195q0 -98 31 -160q35 -61 86 -88q49 -24 104 -24h12q66 4 125 30q61 29 111 74q51 49 76 107l-291 -56l33 330l892 113q8 -51 8 -102q0 -76 -18 -152q-29 -127 -82 -232q-53 -102 -110 -186q-55 -84 -95 -127q-37 -43 -43 -47 q-74 -74 -178 -129t-227 -84q-111 -27 -233 -27h-17q-129 4 -246 45q-115 43 -215 129t-161 224q-68 154 -80 305z" />
<glyph unicode="H" horiz-adv-x="1476" d="M27 1612l598 57l-72 -751l303 22l25 715l583 28l-166 -1581l-475 -57l27 451l-215 -31l-21 -471l-510 -10z" />
<glyph unicode="I" horiz-adv-x="759" d="M78 -35l20 1647l602 71l-84 -1656z" />
<glyph unicode="J" horiz-adv-x="1189" d="M-12 567l450 144q-20 -104 -20 -168q2 -59 12 -90q12 -29 29 -35q16 -6 26 -2q14 6 15 4q4 2 20 18q18 16 37 60q15 33 15 80q0 15 -1 30l-67 981l586 103q12 -326 16 -553q6 -225 6 -361q3 -68 3 -119.5t-3 -87.5q-2 -72 -6 -94q0 -23 -2 -22q-10 -49 -41 -119 q-29 -68 -80 -135q-49 -66 -123 -127q-70 -57 -168 -92q-94 -31 -217 -31q-119 4 -311 80q-41 25 -90 86q-45 66 -78 172q-17 64 -17 148q0 60 9 130z" />
<glyph unicode="K" horiz-adv-x="1302" d="M63 1612l601 71l-7 -370l330 456l402 -473l-572 -530l504 -424l-287 -430l-397 375l-4 -260l-537 -62z" />
<glyph unicode="L" horiz-adv-x="1146" d="M82 1602l616 86l-53 -1153l502 104l24 -576l-1075 -108z" />
<glyph unicode="M" horiz-adv-x="1808" d="M-88 252l520 1520l502 -633l483 499l502 -1380l-494 -403l-223 665l-278 -487l-336 516l-199 -606z" />
<glyph unicode="N" horiz-adv-x="1560" d="M78 -35l26 1704l783 -649l18 678l611 -41l-95 -1563l-784 391l29 -483z" />
<glyph unicode="O" horiz-adv-x="1564" d="M-55 629q-3 43 -3 86q0 106 21 205q33 141 107 266t178 225q104 104 233 176q131 76 279 113q99 26 189 26q36 0 71 -4q123 -14 221 -59q98 -41 166 -109q70 -63 104 -131q63 -121 95 -276q23 -101 22 -206q0 -57 -6 -116q-18 -164 -94 -333q-73 -168 -225 -324 q-72 -74 -179 -129q-104 -55 -227 -84q-111 -27 -231 -27h-17q-127 2 -246 43q-119 43 -217 129q-98 88 -159 224q-66 154 -82 305zM438 690v-12q0 -90 27 -148q31 -59 76 -90q49 -29 106 -32h12q53 0 105 16q61 18 110 59q53 41 87 95q51 80 73 147q25 70 29 127q3 23 3 44 q0 32 -7 60q-9 47 -29 84q-29 66 -86 95q-45 25 -98 25q-12 0 -25 -1q-66 -2 -133 -37q-68 -33 -123 -94t-90 -147q-37 -86 -37 -191z" />
<glyph unicode="P" horiz-adv-x="1310" d="M82 1602q389 45 749 79q53 6 102 5q107 0 189 -27q123 -43 191 -125q72 -80 96 -195q14 -61 13 -126q0 -54 -9 -111q-20 -123 -82 -250q-59 -125 -162 -234q-100 -106 -239 -186t-312 -113l-8 -368l-495 51zM563 815q72 16 127 47t92 66t58 65q20 33 24 51q0 4 2 23v8 q0 17 -6 41q-6 31 -35 47q-21 21 -74 21h-10q-57 0 -157 -41z" />
<glyph unicode="Q" horiz-adv-x="1585" d="M-66 776q23 225 129 410q111 186 289 321q184 135 402 193q99 26 189 26q36 0 71 -4q123 -14 221 -59q98 -41 166 -109q71 -63 104 -131q61 -115 90 -256q27 -108 27 -225q0 -34 -2 -68q-8 -154 -68 -311q-55 -158 -176 -305l94 -92l-303 -301l-106 145 q-129 -55 -281 -76q-55 -7 -110 -7q-93 0 -185 20q-143 33 -268 123q-125 94 -199 254q-87 198 -87 386q0 33 3 66zM432 690q0 -98 29 -160q29 -61 74 -92q49 -29 104 -32q61 0 119 18l-47 63l172 252l106 -104q37 70 53 127q16 61 17 110q1 13 1 26q0 37 -9 67 q-8 43 -27 75q-31 66 -86 95q-45 25 -98 25q-12 0 -25 -1q-66 -2 -133 -37q-68 -33 -123 -94q-53 -61 -90 -147q-37 -87 -37 -191z" />
<glyph unicode="R" horiz-adv-x="1372" d="M68 1602q391 45 749 79q56 6 107 6q122 0 213 -34q129 -47 194 -142q68 -90 76 -217q2 -22 2 -45q0 -102 -37 -209q-43 -131 -141 -254t-242 -213l428 -280l-317 -359l-498 367l-6 -350l-496 51zM551 815q72 16 127 47t92 66t55 65q20 33 25 51q2 4 2 23q1 7 1 14 q0 15 -5 35q-4 31 -35 47q-27 21 -77 21h-9q-56 0 -156 -41z" />
<glyph unicode="S" horiz-adv-x="1210" d="M-47 88l156 438q31 -10 73 -30q43 -18 92 -37q49 -16 103 -29q47 -10 90 -10h14q76 6 127 26q51 23 51 69v7q0 35 -34 53q-33 18 -82 37q-29 10 -80 23q-49 16 -109 39q-55 27 -114 59q-57 37 -107 84q-47 47 -80 113q-31 68 -35 149v20q0 131 50 234q55 113 145 191 q92 78 215 121t262 49q31 1 62 1q98 0 194 -14q127 -18 238 -65l-121 -473q-80 35 -150 57q-66 25 -157 37q-27 4 -72 4h-14q-34 0 -70 -8q-43 -8 -74 -31q-31 -18 -32 -57q-2 -14 14 -25q16 -8 37 -14q25 -4 45 -8q25 -4 37 -6q61 -12 92 -21q35 -6 35 -8q57 -10 110 -35 q63 -29 129 -65q68 -37 121 -91q53 -51 90 -127q37 -74 41 -178q1 -18 1 -35q0 -120 -48 -221q-51 -111 -149 -188q-98 -78 -234 -119q-135 -43 -291 -49q-70 0 -147 6q-74 10 -150 29q-74 18 -143 43q-68 29 -131 55z" />
<glyph unicode="T" horiz-adv-x="1067" d="M-6 1108l14 504l1106 94l-53 -487l-246 -29v-1153l-582 -72l31 1170z" />
<glyph unicode="U" horiz-adv-x="1318" d="M12 600v21q2 20 2 86q4 68 4 184q4 121 9 317q8 201 14 484l586 -103l-54 -962q-3 -26 -3 -50t3 -45q12 -41 21 -59q12 -18 12 -20q23 -20 47 -27h4q27 0 56 49q4 2 12 25q12 25 20 84q8 42 8 97q0 23 -1 48l-43 787l555 102q12 -313 16 -504q8 -188 8 -293q3 -68 3 -105 q0 -19 -1 -30v-33v-22q0 -111 -18 -217q-18 -115 -74 -207q-53 -92 -147 -160q-92 -68 -234 -94q-119 -22 -219 -22q-80 0 -147 14q-152 33 -252 123q-98 90 -146 227q-41 133 -41 290v15z" />
<glyph unicode="V" horiz-adv-x="1531" d="M-98 1368l583 344l301 -721l351 705l510 -295l-902 -1546z" />
<glyph unicode="W" horiz-adv-x="2017" d="M-86 1493l557 242l217 -670l371 569l309 -536l246 733l471 -338l-508 -1505l-510 522l-526 -664z" />
<glyph unicode="X" horiz-adv-x="1650" d="M-20 1370l456 344l402 -411l379 411l458 -344l-485 -504l496 -506l-392 -419l-465 583l-372 -602l-467 391l467 525z" />
<glyph unicode="Y" horiz-adv-x="1435" d="M-123 1360l440 344l363 -569l393 569l502 -344l-625 -807l-6 -590l-551 74v602z" />
<glyph unicode="Z" horiz-adv-x="1673" d="M-33 1104l115 536l1522 50l-695 -1153l770 94l-102 -596l-1509 -98l497 1206z" />
<glyph unicode="a" horiz-adv-x="1234" d="M-18 422q2 86 32 153q33 72 88 123q57 53 134 82q80 31 167 31q6 0 12 1q84 0 146 -28q68 -27 111 -63v61q0 94 -62 125q-61 31 -159 31q-90 0 -168 -18t-158 -43l80 325q98 29 205 39q106 12 217 12q102 0 196 -22q96 -23 168 -78q74 -51 117 -137q41 -78 41 -196v-11 l-23 -774l-411 -35v139h-4q-55 -78 -140 -108q-86 -31 -184 -31q-80 0 -156 29q-74 31 -129 86t-88 133q-31 80 -32 174zM301 385q8 -45 57 -70q34 -16 80 -16q24 0 51 4q80 12 119 51q32 34 32 69q0 7 -1 15q-4 39 -51 66q-31 20 -78 20q-25 0 -55 -6q-70 -6 -115 -47 q-40 -33 -40 -75q0 -5 1 -11z" />
<glyph unicode="b" horiz-adv-x="1310" d="M66 1655l473 37l-19 -533q66 37 123 60q62 24 154 24h9q118 0 216 -53q104 -51 178 -139q76 -88 117 -199q43 -111 43 -225v-11q0 -147 -51 -262q-53 -117 -140 -198q-84 -80 -198 -123q-115 -43 -238 -43q-90 2 -176 33q-82 33 -156 69v-88h-323zM485 608q-2 -14 -2 -28 q0 -23 6 -45q10 -35 35 -64t60 -45q39 -14 82 -18h13q39 0 81 10q51 16 84 39q37 29 55 59q23 33 29 70q2 14 2 28q0 23 -6 45q-10 37 -35 64q-25 29 -60 45q-35 18 -79 20q-12 2 -25 2q-34 0 -70 -12q-49 -12 -84 -41q-35 -25 -57 -59q-23 -31 -29 -70z" />
<glyph unicode="c" horiz-adv-x="1081" d="M-14 602q2 152 51 268q51 121 141 203q92 86 217 127q127 45 271 45q145 0 252 -47q111 -47 182 -96l-271 -354q-27 25 -65 36q-37 14 -78 21q-28 5 -56 5l-18 -1q-35 -2 -59 -14q-37 -16 -66 -47q-27 -29 -43 -62q-16 -31 -16 -70q4 -37 23 -77q43 -80 116 -101 q24 -5 48 -5q55 0 112 28l104 53l279 -369q-49 -43 -109 -73q-59 -31 -120 -49t-125 -25q-61 -6 -123 -8q-137 2 -256 47q-115 49 -205 129q-86 84 -137 194q-49 115 -49 242z" />
<glyph unicode="d" horiz-adv-x="1359" d="M-18 596q0 129 36 246q41 117 111 202q72 90 176 138q106 51 242 51q68 0 131 -16q66 -16 110 -60l-18 488l471 36l-8 -1667l-402 -26v116h-4q-49 -63 -133 -94q-83 -30 -167 -30h-5q-104 0 -200 40q-96 41 -175 121q-74 80 -120 195q-43 117 -45 260zM391 594v-11 q0 -31 10 -61q12 -31 37 -59q29 -25 62 -41q35 -14 75 -16q44 0 91 14q45 16 75 43q29 29 47 61q18 37 21 72v11q0 33 -10 61q-10 33 -37 59q-25 27 -62 41q-33 18 -75 18q-8 1 -16 1q-35 0 -72 -15q-45 -14 -78 -45q-29 -27 -47 -61q-18 -31 -21 -72z" />
<glyph unicode="e" horiz-adv-x="1171" d="M-23 584q0 154 50 274q51 123 133 205q86 84 194 127q113 45 240 45q205 0 354 -105q154 -102 226 -278l-613 -461q25 -10 60 -16q37 -4 67 -4q94 0 158 32q68 37 119 82l202 -333q-123 -88 -256 -129q-129 -41 -301 -41h-11q-133 0 -243 47q-115 49 -200 131 q-82 82 -131 190q-45 111 -48 234zM406 676q0 -35 4 -51q8 -14 14 -33l305 231q-27 37 -61 47q-33 12 -78 13h-7q-35 0 -67 -17q-33 -18 -59 -47q-23 -31 -37 -67q-14 -35 -14 -76z" />
<glyph unicode="f" horiz-adv-x="851" d="M25 827l65 353h76q0 111 29 200q31 90 86 152q59 66 149 98q87 35 202 35h13q9 1 17 1q25 0 45 -5q31 -6 59 -10l53 -340h-69q-66 0 -103 -35t-37 -96h176v-353h-176l13 -811l-459 -36l2 847h-141z" />
<glyph unicode="g" horiz-adv-x="1212" d="M-18 750q0 84 30 172q33 90 101 163q68 74 172 121t250 47q74 0 129 -10q55 -8 104 -26l35 215l327 -142l-106 -209q66 -61 98 -145q35 -80 35 -168v-10v-9q0 -121 -51 -210q-53 -92 -156 -160q201 -113 201 -340q0 -106 -47 -193q-43 -86 -133 -143q-86 -55 -209 -86 t-273 -31q-178 0 -299 31q-117 31 -192 55l199 361q72 -25 143 -41q74 -16 152 -17q33 0 65 5q33 4 59 16q27 14 43 37q16 25 17 63q0 39 -19 64q-18 27 -53 41q-35 16 -78 20q-43 6 -88 6h-12q-47 0 -96 -14q-55 -16 -103 -41l39 123q-133 66 -209 178q-74 117 -75 277z M412 696q10 -51 59 -78q33 -15 73 -15q23 0 48 5q72 14 104 58q28 32 28 71q0 12 -3 25q-10 53 -62 78q-31 16 -69 16q-23 0 -49 -6q-68 -16 -105 -59q-26 -32 -26 -72q0 -11 2 -23z" />
<glyph unicode="h" horiz-adv-x="1202" d="M63 1632l459 37l-14 -575h4q53 66 119 96q70 31 151 31q86 0 152 -31q70 -31 113 -86q43 -53 67 -129q23 -69 23 -149v-13l-13 -793l-432 -36v747q0 35 -24 60q-24 24 -63 24h-3q-37 0 -65 -22q-29 -23 -29 -66v-745l-430 36z" />
<glyph unicode="i" horiz-adv-x="624" d="M78 1307l2 372l469 21l-25 -361zM82 -20v1181l457 37l-23 -1182z" />
<glyph unicode="j" horiz-adv-x="802" d="M8 -20h47q92 0 140 38q47 41 47 134v1003l444 37v-1077q0 -125 -33 -221q-31 -94 -94 -160q-59 -61 -147 -96q-88 -31 -195 -33h-96zM238 1300l2 375l469 21l-25 -361z" />
<glyph unicode="k" horiz-adv-x="1183" d="M59 1628l465 37l-41 -864h4l195 416l453 -37l-267 -516l308 -474l-426 -210l-267 514h-4l17 -478l-426 -36z" />
<glyph unicode="l" horiz-adv-x="612" d="M72 1628l463 37l-19 -1649l-430 -36z" />
<glyph unicode="m" horiz-adv-x="1824" d="M57 1186l418 37v-189h4q66 88 148 137q84 52 196 52h4h12q88 0 148 -29q66 -31 119 -94q53 55 121 88q65 35 141 35h8h10q86 0 152 -31q72 -33 119 -90q49 -53 74 -133q28 -73 28 -160v-6l13 -780l-445 -37l12 743q0 41 -28 64q-28 24 -72 24h-4q-47 0 -78 -31 q-29 -31 -29 -63l13 -700l-445 -37l9 739v9q0 35 -29 57q-28 26 -71 26h-9q-35 0 -72 -24q-33 -25 -32 -70l20 -739l-430 36z" />
<glyph unicode="n" horiz-adv-x="1210" d="M57 1176l426 34v-157h9q68 94 137 125q72 32 150 32h5q86 0 152 -30q68 -31 111 -86t67 -129q25 -74 25 -160v-793l-443 -37l6 746v9q0 31 -26 52q-29 25 -72 25q-37 0 -69 -23q-31 -23 -33 -65l8 -739l-436 30z" />
<glyph unicode="o" horiz-adv-x="1263" d="M-23 522q-7 52 -7 101q0 85 20 161q35 125 108 217q78 92 187 154q115 61 250 80q56 7 110 8q78 0 150 -16q127 -25 223 -94q98 -68 164 -179q68 -106 86 -249q9 -54 9 -106q0 -81 -22 -157q-31 -123 -108 -215q-74 -92 -186 -153q-111 -61 -250 -80q-55 -7 -109 -7 q-78 0 -153 15q-125 27 -224 94q-98 70 -164 176q-66 109 -84 250zM408 530q37 -80 110 -104q30 -9 61 -9q52 0 111 25q92 41 129 111q20 39 20 79q0 36 -16 73q-33 78 -110 102q-30 12 -63 12q-49 0 -107 -26q-94 -39 -131 -113q-19 -37 -19 -77q0 -35 15 -73z" />
<glyph unicode="p" horiz-adv-x="1308" d="M66 1188l423 37v-140q68 74 136 105q72 35 170 35q123 0 223 -54q104 -53 172 -143q74 -86 110 -199q39 -111 39 -227q0 -121 -41 -235q-39 -113 -114 -203q-74 -86 -180 -141q-102 -53 -230 -54q-61 0 -135 19q-74 18 -131 73l12 -407l-432 -37zM481 651 q-15 -38 -15 -73q0 -38 17 -74q16 -33 45 -58t66 -34q29 -7 59 -7l23 1q45 6 92 26q92 43 123 121q17 39 17 75t-17 70q-31 68 -111 93q-29 9 -60 9q-53 0 -112 -28q-92 -43 -127 -121z" />
<glyph unicode="q" horiz-adv-x="1304" d="M-37 610q0 115 39 226q39 115 109 200q72 88 172 142q102 55 225 55h11q91 0 157 -33q74 -33 137 -106v139l426 -37l-22 -1571l-435 37l13 408q-55 -53 -129 -72q-72 -18 -138 -18q-127 0 -229 53t-178 139q-74 88 -117 201q-41 115 -41 237zM412 512q31 -66 110 -90 q29 -9 60 -9q54 0 112 27q96 43 127 121q17 39 17 75.5t-17 70.5q-14 35 -45 57q-29 27 -67 35q-25 8 -54 8q-14 0 -30 -2q-43 -2 -90 -27q-92 -41 -123 -119q-16 -39 -16 -76t16 -71z" />
<glyph unicode="r" horiz-adv-x="856" d="M55 1188l416 37v-228h4q55 227 307 228q55 0 105 -6l-107 -437q-12 4 -30 2h-41h-6q-80 0 -142 -55q-61 -55 -63 -178v-526l-430 -37z" />
<glyph unicode="s" horiz-adv-x="913" d="M18 864q2 68 27 133q29 68 86 119q61 55 154 86q96 33 227 33q13 0 26 1q39 0 76 -5q53 -2 97 -10q49 -6 86 -15q41 -6 65 -14v-361q-51 12 -100 21q-49 8 -107 8q-12 2 -39 0q-25 0 -53 -6q-27 -6 -47 -18t-20 -33q0 -31 32 -49q33 -16 80 -31q51 -14 107 -35 q55 -16 104 -57q49 -37 82 -103q33 -61 33 -166q0 -111 -47 -184q-47 -72 -127 -117t-182 -63t-213 -18q-84 0 -168 10q-82 12 -168 33v383q55 -16 110 -27q57 -10 123 -10h60q33 2 57 6q27 6 43 18q18 12 18 37q2 29 -30 45q-29 18 -78 31q-45 14 -103 33q-53 20 -100 57 q-45 41 -78 102q-31 63 -33 166z" />
<glyph unicode="t" horiz-adv-x="759" d="M18 842l13 354h96v135l444 201v-336l166 25l-22 -377h-140v-359v-11q0 -52 17 -71q18 -18 80 -20q29 2 43 2q18 4 30 6l-71 -405l-62 -4t-65 -2q-195 0 -305 88q-111 92 -111 290v486z" />
<glyph unicode="u" horiz-adv-x="1210" d="M61 330v860l457 37l-12 -758v-8q0 -41 20 -62q24 -22 70 -22h4q43 0 66 20q25 17 25 56q0 7 -1 14l-12 723l471 37l-31 -1219l-377 -16v188h-4q-39 -111 -127 -160q-86 -45 -204 -47h-6q-148 0 -242 90q-96 92 -97 267z" />
<glyph unicode="v" horiz-adv-x="1050" d="M-45 1200l440 35l117 -809h4l135 809l445 -35l-283 -1182l-590 -34z" />
<glyph unicode="w" horiz-adv-x="1613" d="M-53 1206l459 37l120 -573h4l117 530l322 25l121 -561h4l120 579l447 -37l-315 -1181l-424 -33l-115 571h-4l-117 -538l-420 -35z" />
<glyph unicode="x" horiz-adv-x="1140" d="M-39 25l272 600l-253 563l475 37l108 -344h4l95 344l473 -37l-244 -563l285 -600l-492 -35l-117 370h-4l-119 -370z" />
<glyph unicode="y" horiz-adv-x="1028" d="M-31 1149l447 55l137 -450h4l100 450l422 -37l-438 -1544l-463 37l176 481z" />
<glyph unicode="z" horiz-adv-x="995" d="M-31 6l348 756h-292l86 426h854l-344 -756h364l-88 -426h-928z" />
<glyph unicode="&#xad;" horiz-adv-x="933" d="M135 590l19 235l649 29l-21 -274z" />
<glyph unicode="&#xb0;" horiz-adv-x="540" d="M-29 1290q4 86 33 160q31 74 86 129q57 55 127 82q41 18 82 14q41 0 74 -16q37 -16 59 -39q25 -25 37 -49q25 -47 37 -105q18 -53 14 -120q0 -63 -22 -132q-19 -68 -66 -129q-31 -43 -88 -73q-57 -29 -119 -31q-59 -2 -119 29q-57 31 -94 108q-41 86 -41 172zM160 1274 q4 -55 22 -80q23 -25 43 -25q25 2 47 21q25 20 37 51q27 66 23 107q-5 42 -17 71q-16 37 -43 41q-25 6 -53 -16q-27 -23 -45 -66t-14 -104z" />
<glyph unicode="&#xbc;" />
<glyph unicode="&#xbd;" />
<glyph unicode="&#xbe;" />
<glyph unicode="&#xbf;" />
<glyph unicode="&#xc0;" horiz-adv-x="1691" d="M-145 123l911 1651l1034 -1573l-643 -244l-172 287l-430 -15l-84 -307zM324 1827l118 250l258 -242l-82 -143zM662 555l243 43l-102 279z" />
<glyph unicode="&#xc1;" horiz-adv-x="1687" d="M-145 123l911 1651l1034 -1573l-643 -244l-172 287l-430 -15l-84 -307zM662 555l243 43l-102 279zM803 1847l123 -123l311 201l-233 164z" />
<glyph unicode="&#xc2;" horiz-adv-x="1712" d="M-147 123l911 1651l1034 -1573l-645 -244l-172 287l-428 -15l-86 -307zM373 1896l356 226l381 -176l-135 -213l-221 151l-230 -172zM659 555l244 43l-104 279z" />
<glyph unicode="&#xc3;" horiz-adv-x="1712" d="M-147 123l911 1651l1034 -1573l-645 -244l-172 287l-428 -15l-86 -307zM324 1954l129 -213l165 139l369 -115l205 127l-115 201l-151 -86l-353 98zM659 555l244 43l-104 279z" />
<glyph unicode="&#xc4;" />
<glyph unicode="&#xc5;" />
<glyph unicode="&#xc7;" horiz-adv-x="1480" d="M-43 635q-12 152 23 303q39 154 106 285q70 135 162 239q94 106 190 170q0 2 41 23q43 25 113 43q72 23 168 31q98 12 211 -17t235 -104q127 -76 248 -224l-356 -440q-109 117 -193 150t-145 16q-61 -16 -103 -72q-41 -55 -65 -110q-25 -55 -35 -103q-10 -43 -10 -45 q0 -4 10 -53q10 -47 43 -109q37 -61 96 -90q63 -29 170 9q111 37 267 182l397 -426q-29 -53 -94 -111q-68 -55 -160 -106q-90 -49 -205 -86q-111 -37 -231 -49l-146 -338l-332 131l179 221q-72 16 -140 45q-68 33 -129 78q-152 119 -227 262q-72 143 -88 295z" />
<glyph unicode="&#xc8;" horiz-adv-x="1234" d="M68 1573l1130 82l-63 -518l-514 -21l-3 -100l373 28l-43 -358l-344 -29l-2 -112l586 55l-10 -565l-1096 -60zM262 1847l217 181l221 -267l-122 -102z" />
<glyph unicode="&#xc9;" horiz-adv-x="1224" d="M66 1585l1130 82l-63 -518l-517 -21v-100l371 29l-41 -359l-344 -28l-2 -113l586 55l-12 -565l-1094 -59zM524 1786l164 -107l336 193l-254 180z" />
<glyph unicode="&#xca;" horiz-adv-x="1228" d="M63 1573l1131 82l-64 -518l-514 -21l-2 -100l373 28l-43 -358l-344 -29l-2 -112l586 55l-10 -565l-1096 -60zM184 1831l402 201l385 -144l-140 -192l-225 127l-254 -148z" />
<glyph unicode="&#xcb;" horiz-adv-x="1224" d="M57 1573l1131 82l-64 -518l-516 -21v-100l371 28l-41 -358l-344 -29l-2 -112l586 55l-13 -565l-1093 -60zM162 1853l338 25l35 -164q-31 -2 -89 -8q-53 -2 -106 -6q-51 0 -90 -2q-37 -2 -39 2q2 4 -2 12q0 10 -12 45q-8 37 -35 96zM625 1743l6 162l319 69l19 -184 q-160 -16 -252 -33q-92 -12 -92 -14z" />
<glyph unicode="&#xcc;" horiz-adv-x="802" d="M82 1913l274 -303l168 61l-155 361zM115 -35l536 60l84 1554l-600 -72z" />
<glyph unicode="&#xcd;" horiz-adv-x="811" d="M115 -35l536 60l84 1554l-600 -72zM262 1683l176 -28l267 266l-283 115z" />
<glyph unicode="&#xce;" horiz-adv-x="796" d="M23 1720l333 201l420 -143l-65 -133l-316 151l-268 -180zM94 -27l21 1543l600 71l-84 -1554z" />
<glyph unicode="&#xcf;" horiz-adv-x="835" d="M10 1751l338 25l35 -164q-31 -2 -88 -8q-53 -2 -107 -7q-51 0 -90 -2q-37 -2 -39 2q2 4 -2 13q0 10 -12 45q-8 37 -35 96zM115 -35l536 60l84 1554l-600 -72zM473 1640l6 162l320 70l18 -184q-160 -16 -252 -33q-92 -12 -92 -15z" />
<glyph unicode="&#xd2;" horiz-adv-x="1556" d="M-57 639q-12 152 20 291q33 143 107 266q74 125 178 225q104 102 233 176q133 74 277 111q139 37 262 23q123 -12 221 -58q98 -43 166 -108q72 -66 104 -133q66 -123 95 -277q33 -154 16 -319q-16 -164 -94 -334q-73 -170 -225 -324q-70 -74 -179 -129q-104 -53 -227 -84 q-119 -27 -250 -26q-129 2 -246 43q-115 43 -215 129t-161 223q-70 154 -82 305zM324 1987l327 188l344 -291l-233 -106zM438 700q0 -98 29 -159t74 -90q49 -29 106 -33q61 -4 117 16q61 20 110 60q53 43 87 94q51 80 73 147q23 68 29 125t-4 105q-11 49 -29 86 q-31 63 -86 92q-55 31 -123 24q-66 -2 -133 -37q-68 -33 -123 -94q-53 -61 -90 -145q-37 -86 -37 -191z" />
<glyph unicode="&#xd3;" horiz-adv-x="1548" d="M-57 639q-12 152 20 291q33 143 107 266q74 125 178 225q104 102 233 176q133 74 277 111q139 37 262 23q123 -12 221 -58q98 -43 166 -108q72 -66 104 -133q66 -123 95 -277q33 -154 16 -319q-16 -164 -94 -334q-73 -170 -225 -324q-70 -74 -179 -129q-104 -53 -227 -84 q-119 -27 -250 -26q-129 2 -246 43q-115 43 -215 129t-161 223q-70 154 -82 305zM438 700q0 -98 29 -159t74 -90q49 -29 106 -33q61 -4 117 16q61 20 110 60q53 43 87 94q51 80 73 147q23 68 29 125t-4 105q-11 49 -29 86q-31 63 -86 92q-55 31 -123 24q-66 -2 -133 -37 q-68 -33 -123 -94q-53 -61 -90 -145q-37 -86 -37 -191zM492 1921l458 270l221 -225l-503 -205z" />
<glyph unicode="&#xd4;" horiz-adv-x="1552" d="M-61 639q-12 152 20 291q33 143 107 266q74 125 178 225q104 102 233 176q133 74 277 111q139 37 262 23q123 -12 221 -58q98 -43 166 -108q72 -66 104 -133q66 -123 95 -277q33 -154 16 -319q-16 -164 -94 -334q-74 -170 -226 -324q-70 -74 -178 -129q-104 -53 -227 -84 q-119 -27 -250 -26q-129 2 -246 43q-115 43 -215 129t-162 223q-70 154 -81 305zM369 1896l327 218l439 -111l-86 -205l-299 86l-230 -172zM434 700q0 -98 29 -159t74 -90q49 -29 106 -33q61 -4 117 16q61 20 110 60q53 43 86 94q51 80 74 147q23 68 29 125t-4 105 q-11 49 -29 86q-31 63 -86 92q-55 31 -123 24q-66 -2 -133 -37q-68 -33 -123 -94q-53 -61 -90 -145q-37 -86 -37 -191z" />
<glyph unicode="&#xd5;" horiz-adv-x="1552" d="M-61 639q-12 152 20 291q33 143 107 266q74 125 178 225q104 102 233 176q133 74 277 111q139 37 262 23q123 -12 221 -58q98 -43 166 -108q72 -66 104 -133q66 -123 95 -277q33 -154 16 -319q-16 -164 -94 -334q-74 -170 -226 -324q-70 -74 -178 -129q-104 -53 -227 -84 q-119 -27 -250 -26q-129 2 -246 43q-115 43 -215 129t-162 223q-70 154 -81 305zM319 1954l130 -213l165 139l369 -90l176 143l-115 197l-151 -94l-324 69zM434 700q0 -98 29 -159t74 -90q49 -29 106 -33q61 -4 117 16q61 20 110 60q53 43 86 94q51 80 74 147q23 68 29 125 t-4 105q-11 49 -29 86q-31 63 -86 92q-55 31 -123 24q-66 -2 -133 -37q-68 -33 -123 -94q-53 -61 -90 -145q-37 -86 -37 -191z" />
<glyph unicode="&#xd9;" horiz-adv-x="1396" d="M49 633v35q2 35 4 147q4 115 8 330q6 217 17 577l586 -100l-54 -963q-6 -53 0 -94q12 -41 21 -59q12 -18 12 -21q23 -20 47 -26q29 -4 60 49q4 2 12 24q12 25 20 84q12 59 6 146l-43 786l555 103q8 -246 15 -422q6 -172 8 -279q2 -104 2 -166q4 -61 2 -79v-21 q2 -123 -18 -238q-18 -115 -74 -206q-53 -92 -148 -160q-92 -68 -233 -94q-209 -43 -365 -11q-152 37 -251 125q-96 90 -146 228q-45 139 -43 305zM393 1913l299 -205l176 135l-278 266z" />
<glyph unicode="&#xda;" horiz-adv-x="1396" d="M49 633v35q2 35 4 147q4 115 8 330q6 217 17 577l586 -100l-54 -963q-6 -53 0 -94q12 -41 21 -59q12 -18 12 -21q23 -20 47 -26q29 -4 60 49q4 2 12 24q12 25 20 84q12 59 6 146l-43 786l555 103q8 -246 15 -422q6 -172 8 -279q2 -104 2 -166q4 -61 2 -79v-21 q2 -123 -18 -238q-18 -115 -74 -206q-53 -92 -148 -160q-92 -68 -233 -94q-209 -43 -365 -11q-152 37 -251 125q-96 90 -146 228q-45 139 -43 305zM596 1812l170 -129l342 205l-225 205z" />
<glyph unicode="&#xdb;" horiz-adv-x="1380" d="M47 659q0 20 2 86q4 68 4 185q2 119 8 315q6 201 15 484l586 -101l-54 -962q-8 -51 0 -95q12 -41 19 -59q12 -16 12 -20q25 -20 49 -27q29 -4 60 49q4 2 12 25q12 25 20 82q12 59 6 145l-43 788l553 101q10 -246 15 -422q6 -172 8 -279q6 -104 4 -166q2 -59 2 -77v-21 q4 -121 -18 -237q-18 -113 -76 -207q-55 -92 -148 -160q-90 -66 -231 -94q-213 -43 -367 -10q-152 35 -252 124q-100 90 -145 228q-45 141 -41 325zM326 1901l376 155l394 -110l-56 -193l-329 86l-252 -115z" />
<glyph unicode="&#xdc;" horiz-adv-x="1390" d="M51 674q2 35 4 147q4 117 8 330q8 217 17 578l588 -101l-56 -962q-8 -51 0 -95q12 -41 21 -59q12 -16 12 -20q20 -20 47 -27q31 -4 62 49q4 2 12 25q10 27 18 84q12 61 7 145l-43 786l555 103q10 -246 14 -422q4 -172 8 -279q4 -104 4 -168v-77v-21q4 -121 -18 -237 q-18 -113 -74 -207q-55 -92 -147 -160q-92 -66 -232 -94q-213 -43 -366 -10q-152 35 -252 124q-98 90 -146 228q-47 141 -43 340zM330 1901l338 24l34 -164q-33 -4 -88 -8q-53 -2 -106 -6q-51 -4 -92 -4q-37 0 -37 4t-2 12q0 10 -12 45q-10 40 -35 97zM793 1790l6 162 l319 69l19 -184q-160 -18 -344 -47z" />
<glyph unicode="&#xe0;" horiz-adv-x="1202" d="M-18 395q2 -94 32 -174q33 -78 88 -133t129 -84q76 -31 156 -31q100 0 184 31q86 31 142 109h4v-140l409 37l23 772q6 123 -39 207q-43 84 -117 137q-72 53 -170 76q-94 25 -196 25q-106 2 -215 -10q-106 -12 -205 -41l-80 -326q78 25 156 43t168 18q49 0 90 -6 q41 -4 69 -22q31 -18 47 -49q18 -31 17 -78v-62q-43 35 -111 62q-66 31 -157 28q-88 2 -166 -28q-78 -29 -136 -82q-55 -51 -90 -123q-31 -70 -32 -156zM293 1540l297 164l229 -338l-162 -84zM303 358q-6 47 37 84q45 42 117 50q86 16 131 -13q47 -29 53 -67q6 -43 -33 -84 q-39 -37 -119 -52q-78 -14 -129 11q-49 25 -57 71z" />
<glyph unicode="&#xe1;" horiz-adv-x="1212" d="M-18 395q2 -94 32 -174q33 -78 88 -133t129 -84q76 -31 156 -31q100 0 184 31q86 31 142 109h4v-140l409 37l23 772q6 123 -39 207q-43 84 -117 137q-72 53 -170 76q-94 25 -196 25q-106 2 -215 -10q-106 -12 -205 -41l-80 -326q78 25 156 43t168 18q49 0 90 -6 q41 -4 69 -22q31 -18 47 -49q18 -31 17 -78v-62q-43 35 -111 62q-66 31 -157 28q-88 2 -166 -28q-78 -29 -136 -82q-55 -51 -90 -123q-31 -70 -32 -156zM303 358q-6 47 37 84q45 42 117 50q86 16 131 -13q47 -29 53 -67q6 -43 -33 -84q-39 -37 -119 -52q-78 -14 -129 11 q-49 25 -57 71zM485 1317l160 405l320 -100l-273 -301z" />
<glyph unicode="&#xe2;" horiz-adv-x="1212" d="M-25 408q0 -94 33 -175q33 -78 88 -133t127 -84q76 -31 156 -30q100 0 184 30q86 31 142 109h4v-139l411 37l23 772q4 123 -41 206q-41 84 -115 138q-74 53 -170 75q-94 25 -196 25q-111 2 -218 -10q-104 -12 -204 -41l-80 -326q78 25 155 43q80 18 170 19q47 0 88 -6 q41 -4 70 -23q31 -18 47 -49q18 -31 17 -78v-61q-43 35 -109 61q-66 31 -160 29q-88 2 -166 -29q-76 -29 -133 -82q-57 -51 -90 -123q-33 -70 -33 -155zM229 1423l230 224h313l217 -238l-248 -102l-125 172l-129 -172zM295 371q-4 47 39 84q47 41 115 49q86 16 131 -12 q47 -29 53 -68q10 -43 -31 -84q-37 -37 -119 -51q-78 -14 -129 10q-51 25 -59 72z" />
<glyph unicode="&#xe3;" horiz-adv-x="1189" d="M-25 408q0 -94 33 -175q33 -78 88 -133t127 -84q76 -31 156 -30q100 0 184 30q86 31 142 109h4v-139l411 37l23 772q4 123 -41 206q-41 84 -115 138q-74 53 -170 75q-94 25 -196 25q-111 2 -218 -10q-104 -12 -204 -41l-80 -326q78 25 155 43q80 18 170 19q47 0 88 -6 q41 -4 70 -23q31 -18 47 -49q18 -31 17 -78v-61q-43 35 -109 61q-66 31 -160 29q-88 2 -166 -29q-76 -29 -133 -82q-57 -51 -90 -123q-33 -70 -33 -155zM225 1511l211 146l334 -86l195 131l100 -221l-256 -152l-272 117l-179 -148zM295 371q-4 47 39 84q47 41 115 49 q86 16 131 -12q47 -29 53 -68q10 -43 -31 -84q-37 -37 -119 -51q-78 -14 -129 10q-51 25 -59 72z" />
<glyph unicode="&#xe4;" horiz-adv-x="1196" d="M-27 410q2 -94 33 -174q33 -78 88 -134q55 -53 129 -84q76 -31 156 -30q100 0 184 30q86 31 142 109h4v-139l409 37l23 772q6 125 -39 207q-43 86 -117 137q-72 53 -170 76q-94 25 -197 24q-106 0 -215 -10q-106 -10 -204 -41l-80 -326q78 25 155 43q78 18 168 19 q49 0 90 -6t70 -23q31 -18 47 -49q18 -29 17 -78v-61q-43 35 -111 61q-66 29 -158 29q-88 0 -166 -29t-135 -82q-55 -51 -90 -123q-31 -70 -33 -155zM258 1610l274 20l23 -219l-272 2zM295 373q-6 49 37 84q45 41 117 49q86 18 131 -12q47 -27 53 -68q8 -43 -31 -84 q-37 -39 -121 -51q-80 -12 -129 10q-49 27 -57 72zM690 1610l275 20l22 -219l-272 2z" />
<glyph unicode="&#xe7;" horiz-adv-x="1056" d="M-29 575q0 150 52 269q51 123 141 203q94 84 217 127q127 45 270 45q147 2 254 -48q111 -45 182 -96l-270 -352q-27 25 -65 37q-37 14 -78 18q-37 8 -74 4q-35 0 -59 -14q-37 -18 -66 -47q-27 -29 -43 -62t-16 -69q4 -37 22 -76q43 -80 117 -100q78 -20 160 20l104 55 l277 -368q-90 -80 -203 -115q-111 -35 -193 -51l-114 -229l-250 57l135 180q-94 33 -190 88q-94 55 -164 133q-68 80 -107 178q-39 102 -39 213z" />
<glyph unicode="&#xe8;" horiz-adv-x="1185" d="M-31 573q2 -123 47 -231q49 -111 131 -192q86 -80 201 -130q117 -49 256 -49q172 0 301 41q131 41 256 131l-203 332q-53 -45 -118 -80q-66 -35 -158 -35q-31 0 -68 5q-37 4 -61 16l614 463q-72 176 -223 278q-152 104 -356 105q-125 2 -240 -43q-111 -43 -196 -129 q-82 -84 -134 -207q-49 -119 -49 -275zM369 1542l297 164l229 -338l-160 -84zM397 668q0 41 13 75q16 37 39 66q27 31 59 47q37 18 76 18q43 0 75 -12q37 -12 64 -49l-307 -229q-6 18 -13 30q-6 16 -6 54z" />
<glyph unicode="&#xe9;" horiz-adv-x="1198" d="M-27 571q0 154 50 275q51 121 133 205q86 86 196 129q115 45 240 45q203 0 354 -105q152 -104 225 -278l-614 -463q25 -10 61 -17q37 -4 68 -4q92 0 156 33q68 37 121 82l200 -332q-121 -88 -254 -131q-131 -41 -301 -41q-139 -2 -256 47q-115 49 -200 131 q-82 82 -132 191q-45 111 -47 233zM373 1366l229 338l297 -164l-367 -258zM401 666q0 -37 7 -54q6 -12 12 -30l307 231q-27 35 -61 47q-35 12 -78 12q-39 0 -76 -18q-33 -18 -59 -47q-23 -29 -37 -66t-15 -75z" />
<glyph unicode="&#xea;" horiz-adv-x="1185" d="M-25 575q0 154 50 275q49 121 133 205q84 86 194 129q115 45 240 45q203 0 354 -105q152 -104 225 -278l-612 -463q23 -10 59 -16q37 -4 68 -5q92 0 158 33q66 37 119 82l202 -332q-125 -88 -256 -131q-129 -41 -301 -41q-137 -2 -254 47t-200 132q-82 82 -131 190 q-47 111 -48 233zM223 1415l228 223h315l215 -237l-246 -103l-127 172l-127 -172zM403 670q-2 -37 5 -54q6 -12 12 -30l307 231q-27 35 -61 47q-35 12 -78 13q-39 0 -74 -19q-35 -18 -59 -47q-23 -29 -37 -66q-12 -37 -15 -75z" />
<glyph unicode="&#xeb;" horiz-adv-x="1196" d="M-25 584q0 154 50 274q49 121 133 205q84 86 194 129q115 45 240 45q203 0 354 -104q152 -104 225 -279l-612 -463q23 -10 59 -16q37 -4 68 -4q92 0 158 32q66 37 119 82l202 -331q-125 -88 -256 -131q-129 -41 -301 -41q-137 -2 -254 47t-200 131q-82 82 -131 190 q-47 111 -48 234zM233 1608l273 20l22 -219l-272 2zM403 678q-2 -37 5 -53q6 -12 12 -31l307 231q-27 35 -61 47q-35 12 -78 13q-39 0 -74 -19q-35 -18 -59 -47q-23 -29 -37 -65q-13 -37 -15 -76zM666 1608l272 20l23 -219l-273 2z" />
<glyph unicode="&#xec;" horiz-adv-x="847" d="M82 1913l274 -303l168 61l-155 361zM115 -35l536 60l84 1554l-600 -72z" />
<glyph unicode="&#xed;" horiz-adv-x="819" d="M115 -35l536 60l84 1554l-600 -72zM283 1696l192 -78l266 328l-311 98z" />
<glyph unicode="&#xee;" horiz-adv-x="673" d="M-57 1407l227 223h315l215 -237l-245 -103l-127 172l-127 -172zM127 -16l412 36l32 1182l-444 -37v-1181z" />
<glyph unicode="&#xef;" horiz-adv-x="661" d="M-45 1591l272 21l23 -219l-270 2zM115 -16l411 36l33 1182l-444 -37v-1181zM387 1591l272 21l23 -219l-270 2z" />
<glyph unicode="&#xf2;" horiz-adv-x="1232" d="M-23 506q20 -141 86 -250q68 -106 164 -176q98 -68 222 -96q127 -25 262 -9q137 16 247 78q115 61 189 154q78 92 108 215q35 123 15 264q-18 141 -86 250q-66 109 -164 176q-96 72 -221 96q-123 29 -262 9q-135 -16 -248 -78q-111 -61 -189 -154q-72 -92 -108 -215 q-33 -123 -15 -264zM295 1622l311 127l185 -401l-185 -41zM410 512q-35 80 0 150q37 72 133 112q98 45 172 17q78 -25 108 -105q37 -78 0 -149q-37 -70 -133 -113q-92 -41 -170 -16q-73 24 -110 104z" />
<glyph unicode="&#xf3;" horiz-adv-x="1245" d="M-23 506q20 -141 86 -250q68 -106 164 -176q98 -68 222 -96q127 -25 262 -9q137 16 247 78q115 61 189 154q78 92 108 215q35 123 15 264q-18 141 -86 250q-66 109 -164 176q-96 72 -221 96q-123 29 -262 9q-135 -16 -248 -78q-111 -61 -189 -154q-72 -92 -108 -215 q-33 -123 -15 -264zM410 512q-35 80 0 150q37 72 133 112q98 45 172 17q78 -25 108 -105q37 -78 0 -149q-37 -70 -133 -113q-92 -41 -170 -16q-73 24 -110 104zM481 1397l195 364l282 -139l-286 -319z" />
<glyph unicode="&#xf4;" horiz-adv-x="1247" d="M-31 506q20 -141 86 -250q68 -106 164 -176q98 -68 221 -96q127 -25 262 -9q137 16 248 78q115 61 189 154q78 92 108 215q35 123 15 264q-18 141 -86 250q-66 109 -164 176q-96 72 -221 96q-123 29 -263 9q-135 -16 -247 -78q-111 -61 -189 -154q-72 -92 -108 -215 q-33 -123 -15 -264zM236 1415l227 268l266 -8l266 -274l-247 -103l-125 172l-129 -172zM401 512q-35 80 0 150q37 72 134 112q98 45 172 17q78 -25 108 -105q37 -78 0 -149q-37 -70 -133 -113q-92 -41 -170 -16q-74 24 -111 104z" />
<glyph unicode="&#xf5;" horiz-adv-x="1232" d="M-23 506q20 -141 86 -250q68 -106 164 -176q98 -68 222 -96q127 -25 262 -9q137 16 247 78q115 61 189 154q78 92 108 215q35 123 15 264q-18 141 -86 250q-66 109 -164 176q-96 72 -221 96q-123 29 -262 9q-135 -16 -248 -78q-111 -61 -189 -154q-72 -92 -108 -215 q-33 -123 -15 -264zM225 1511l211 146l334 -86l195 131l100 -221l-256 -152l-272 117l-179 -148zM410 512q-35 80 0 150q37 72 133 112q98 45 172 17q78 -25 108 -105q37 -78 0 -149q-37 -70 -133 -113q-92 -41 -170 -16q-73 24 -110 104z" />
<glyph unicode="&#xf7;" horiz-adv-x="1636" d="M47 551l19 215l1519 65l-20 -251zM514 176q10 45 39 82q31 41 74 72q45 33 102 51q57 20 113 22q57 6 102 -10q47 -12 80 -41q37 -29 47 -67q16 -37 4 -80q-8 -41 -39 -82q-29 -37 -73 -72q-46 -31 -103 -51q-55 -18 -112 -23q-55 -2 -103 11q-43 16 -80 41 q-33 29 -47 67q-12 39 -4 80zM598 1159q10 45 39 82q31 41 76 72q45 33 102 51q57 20 113 22q57 6 102 -10q47 -12 80 -41q37 -29 47 -67q16 -37 4 -80q-8 -41 -39 -82q-29 -37 -73 -72q-46 -31 -103 -51q-55 -18 -112 -22q-55 -2 -103 10q-43 16 -80 41q-33 29 -49 67 q-12 39 -4 80z" />
<glyph unicode="&#xf9;" horiz-adv-x="1212" d="M61 332q0 -86 25 -154q29 -68 72 -112q47 -43 108 -68q66 -25 140 -25q117 2 202 47q88 49 129 162h4v-190l379 18l29 1219l-469 -37l12 -723q2 -49 -24 -70q-25 -18 -68 -20q-45 2 -70 20q-25 23 -24 72l12 758l-457 -37v-860zM299 1556l297 164l229 -338l-161 -84z" />
<glyph unicode="&#xfa;" horiz-adv-x="1204" d="M61 332q0 -86 25 -154q29 -68 72 -112q47 -43 108 -68q66 -25 140 -25q117 2 202 47q88 49 129 162h4v-190l379 18l29 1219l-469 -37l12 -723q2 -49 -24 -70q-25 -18 -68 -20q-45 2 -70 20q-25 23 -24 72l12 758l-457 -37v-860zM463 1368l229 365l320 -91l-324 -344z" />
<glyph unicode="&#xfb;" horiz-adv-x="1185" d="M47 336q0 -172 94 -266q96 -92 250 -93q117 2 203 48q90 49 129 161h4v-190l377 18l31 1219l-471 -37l12 -723q4 -49 -23 -70q-25 -18 -67 -20q-49 2 -72 20q-23 23 -22 72l12 758l-457 -37v-860zM209 1432l227 223h316l215 -238l-246 -102l-127 172l-127 -172z" />
<glyph unicode="&#xff;" horiz-adv-x="1001" d="M-59 1169l385 -1007l-176 -484l464 -36l437 1546l-422 37l-101 -451h-4l-137 451zM133 1595l275 21l22 -219l-272 2zM565 1595l275 21l22 -219l-272 2z" />
<glyph unicode="&#x152;" horiz-adv-x="2142" d="M-45 629q-12 152 20 291q33 141 107 266t178 225q104 104 236 176q131 74 276 111q88 25 170 24q86 6 158 -10q76 -12 137 -41q66 -29 117 -65l786 63l-63 -520l-545 -21l10 -98l389 27l-41 -359l-372 -28l-2 -113l614 55l-12 -563l-1031 -59v24q-129 -57 -282 -77 q-154 -18 -299 10q-143 33 -270 123q-125 90 -199 254q-70 154 -82 305zM451 690q-2 -98 26 -160q31 -59 76 -90q49 -29 106 -32q61 -2 117 16q61 18 111 59q53 42 86 95q51 80 74 147q23 70 28 125q6 55 -4 104t-29 86q-31 66 -86 95q-55 31 -122 24q-66 -4 -134 -39 q-68 -33 -122 -94q-53 -59 -91 -145q-37 -86 -36 -191z" />
<glyph unicode="&#x153;" horiz-adv-x="1992" d="M-33 596q0 143 49 260q53 119 138 199q90 82 206 125q119 45 258 45q152 0 252 -35q104 -33 191 -94q74 43 170 86q98 43 227 43q106 0 195 -27q90 -27 159 -76q74 -49 132 -121q59 -70 112 -159l-641 -461q27 -8 58 -16q31 -6 77 -7q92 -2 164 27q76 29 133 66l185 -322 q-111 -76 -240 -119q-127 -41 -293 -41q-121 2 -235 33q-113 33 -205 107q-80 -66 -197 -103q-115 -37 -244 -37q-139 0 -258 43q-115 45 -204 127q-86 82 -138 197q-51 119 -51 260zM442 596q0 -86 47 -139q49 -51 129 -51q82 0 130 51q47 53 47 139q0 88 -47 137 q-47 53 -130 51q-78 2 -126 -51q-50 -49 -50 -137zM1251 680q2 -49 21 -84l311 219q-20 23 -51 39q-31 18 -80 18q-92 0 -145 -57q-55 -55 -56 -135z" />
<glyph unicode="&#x178;" horiz-adv-x="1519" d="M-84 1360l516 -723v-602l551 -74l6 590l625 809l-502 342l-393 -569l-363 569zM403 1880l338 25l35 -164q-33 -4 -88 -8q-53 -2 -108 -7q-51 -4 -93 -4q-37 0 -36 4q0 -2 -7 29q-6 31 -41 125zM866 1769l4 162l320 70l20 -184q-160 -18 -344 -48z" />
<glyph unicode="&#x2000;" horiz-adv-x="1095" />
<glyph unicode="&#x2001;" horiz-adv-x="2191" />
<glyph unicode="&#x2002;" horiz-adv-x="1095" />
<glyph unicode="&#x2003;" horiz-adv-x="2191" />
<glyph unicode="&#x2004;" horiz-adv-x="730" />
<glyph unicode="&#x2005;" horiz-adv-x="547" />
<glyph unicode="&#x2006;" horiz-adv-x="365" />
<glyph unicode="&#x2007;" horiz-adv-x="365" />
<glyph unicode="&#x2008;" horiz-adv-x="273" />
<glyph unicode="&#x2009;" horiz-adv-x="438" />
<glyph unicode="&#x200a;" horiz-adv-x="121" />
<glyph unicode="&#x2010;" horiz-adv-x="933" d="M135 590l19 235l649 29l-21 -274z" />
<glyph unicode="&#x2011;" horiz-adv-x="933" d="M135 590l19 235l649 29l-21 -274z" />
<glyph unicode="&#x2012;" horiz-adv-x="933" d="M135 590l19 235l649 29l-21 -274z" />
<glyph unicode="&#x2013;" horiz-adv-x="1289" d="M135 590l29 235l995 29l-32 -274z" />
<glyph unicode="&#x2014;" horiz-adv-x="1931" d="M14 551l39 387l1317 47l-39 -424z" />
<glyph unicode="&#x201c;" horiz-adv-x="878" d="M70 1868l157 129l172 -414l-86 -29zM362 1868l158 129l172 -414l-86 -29z" />
<glyph unicode="&#x201d;" horiz-adv-x="854" d="M164 1583l172 414l158 -129l-244 -314zM457 1583l170 414l157 -129l-241 -314z" />
<glyph unicode="&#x202f;" horiz-adv-x="438" />
<glyph unicode="&#x205f;" horiz-adv-x="547" />
<glyph unicode="&#x25fc;" horiz-adv-x="1228" d="M0 0v1229h1229v-1229h-1229z" />
</font>
</defs>
</svg>
